<?xml version="1.0" encoding="UTF-8"?>
<svg viewBox="0 0 113.08 113.08" xmlns="http://www.w3.org/2000/svg">
  <path d="M50.07.13c23.1-1.36,41.81,7.84,53.76,27.69,16.16,26.83,6.33,62.26-20.52,77.79C39.69,130.83-10.87,87.9,2.05,40.91,7.76,20.16,28.14,1.42,50.07.13ZM52.22,2.28c-.43-.39-1.4-.32-1.95-.28C29.33,3.77,8.89,21.73,3.92,42.06c-.5,2.05-.53,4.19-.95,6.25-.22,1.07-2.03,3.74-.75,4.82,1.59,1.34,3.19-2.63,3.86-3.39,7.86-9.04,17.99-18.58,26.52-27.24,5.26-5.34,10.53-10.8,15.96-15.96.79-.75,4.89-3.14,3.67-4.25ZM59.89,2.03c-2.69.92,4.49,5.92,5.36,6.78,11.59,11.48,23.6,23.89,34.79,35.77,1.26,1.34,7.66,7.88,7.66,9.13,0,.25-2.2,4.12-2.49,4.45-.51.59-1.58,1.05-2.18,1.66-15.43,15.76-31.08,31.32-46.31,47.29-1.69,1.6-3.16-.14-4.45-1.31-9.6-8.76-19.82-19.86-29.04-29.28-5.8-5.93-12.09-12.26-17.64-18.36-.54-.59-3.25-5.53-3.72-1.33-.17,1.51,1.56,10.67,2.05,12.6,8.4,33.61,46.42,51.9,77.41,34.92,42.32-23.18,35.12-87.58-10.85-100.28-1.24-.34-9.99-2.24-10.58-2.04ZM55.58,2.74L5.24,54.65l50.05,50.31,50.28-51.25L55.58,2.74Z"/>
  <path d="M56.76,19.55c.39-.03,1.09.41,1.41.66,8.45,10.33,20.53,19.78,28.43,30.37,1.45,1.94,2.06,2.15.86,4.68-1.1,2.32-8.98,9.71-11.28,12-3.25,3.23-17.19,17.2-20.2,18.44-1.9.78-3.38-1.15-4.77-2.36-9.61-8.34-17.96-19.57-27.84-27.84l-.61-1.32L56.76,19.55ZM37.55,66.39c2.4,2.44,14.94,16.29,16.68,16.79.57.17,1.12.24,1.71.11,1.01-.22,8.24-7,9.54-8.23,4.23-3.99,8.9-8.56,12.96-12.72,1.37-1.4,6.63-6.58,7.3-7.82.31-.56.47-.8.33-1.49-3.45-3.61-6.54-7.56-9.92-11.22-5.04-5.47-10.68-11.48-15.96-16.68-.98-.96-2.46-3-3.91-2.71l-30.85,30.85c-.11.36-.08.72,0,1.09.18.84,10.58,10.48,12.1,12.02Z"/>
  <path d="M56.78,34.92c7.69-.98,15.45,11.09,14.71,18.07-.83,7.81-10.17,19.46-18.86,16.93-5.32-1.55-9.6-4.99-13.06-9.26-3.06-3.79-3.6-5.37-1.74-10.12,2.08-5.31,13.23-14.88,18.95-15.61ZM57.02,36.84c-5.12.48-17.51,11.18-17.95,16.38-.63,7.33,11.86,16.95,18.79,14.71,6.03-1.95,11.36-9.94,11.71-16.13.32-5.71-6.14-15.55-12.54-14.95Z"/>
</svg>
