<?xml version="1.0" encoding="UTF-8"?>
<svg viewBox="0 0 490.9 113.08" xmlns="http://www.w3.org/2000/svg">
  <path d="M50.07.13c23.1-1.36,41.81,7.84,53.76,27.69,16.16,26.83,6.33,62.26-20.52,77.79C39.69,130.83-10.87,87.9,2.05,40.91,7.76,20.16,28.14,1.42,50.07.13ZM52.22,2.28c-.43-.39-1.4-.32-1.95-.28C29.33,3.77,8.89,21.73,3.92,42.06c-.5,2.05-.53,4.19-.95,6.25-.22,1.07-2.03,3.74-.75,4.82,1.59,1.34,3.19-2.63,3.86-3.39,7.86-9.04,17.99-18.58,26.52-27.24,5.26-5.34,10.53-10.8,15.96-15.96.79-.75,4.89-3.14,3.67-4.25ZM59.89,2.03c-2.69.92,4.49,5.92,5.36,6.78,11.59,11.48,23.6,23.89,34.79,35.77,1.26,1.34,7.66,7.88,7.66,9.13,0,.25-2.2,4.12-2.49,4.45-.51.59-1.58,1.05-2.18,1.66-15.43,15.76-31.08,31.32-46.31,47.29-1.69,1.6-3.16-.14-4.45-1.31-9.6-8.76-19.82-19.86-29.04-29.28-5.8-5.93-12.09-12.26-17.64-18.36-.54-.59-3.25-5.53-3.72-1.33-.17,1.51,1.56,10.67,2.05,12.6,8.4,33.61,46.42,51.9,77.41,34.92,42.32-23.18,35.12-87.58-10.85-100.28-1.24-.34-9.99-2.24-10.58-2.04ZM55.58,2.74L5.24,54.65l50.05,50.31,50.28-51.25L55.58,2.74Z"/>
  <path d="M223.81,16.43c3.89.57,8.02-.23,11.88.25,3.25.4,7.66,1.61,9.59,4.33,4.14,5.84,2.58,9.49-2.33,13.61-2.74,2.3.82,2.5,2.26,3.5,4.66,3.21,5,9.28,2.14,13.87-3.23,5.18-18.3,6.4-23.62,5.45-2.34-.42-.66-3.21-.58-4.92.46-9.77-.04-20.56,0-30.49,0-1.81-1.51-4.48.63-5.59ZM235.1,19.57c-1.23-.07-6.46-.02-7.49.19-.5.1-.93.26-1.16.76-.68,1.47.04,7.69.06,9.66.01,1.28-1.16,3.15.16,4.17s10.01.69,11.91.21c4.39-1.1,5.59-7.13,3.73-10.82-.93-1.85-5.24-4.06-7.21-4.17ZM226.58,38.04c-.5.56-.03,10.01-.04,11.58,0,1.26-1.27,3.65.47,4.32.7.27,9.61.27,10.62.07,2.79-.54,6.69-3.01,7.11-6.09.74-5.43-.74-8.36-6.04-9.98-1.32-.41-8.85-.61-10.37-.43-.38.04-1.53.31-1.74.54Z"/>
  <path d="M369.86,57.12l.23-40.68c1.64-1.69,3.93,3.14,4.75,4.13,6.11,7.45,12.43,14.89,18.23,22.57.85,1.13,3.91,7.63,5.26,5.24.15-10.23.38-20.63.04-30.91.43-2.13,3.36-1.65,3.57.48-.92,12.88-.31,25.95-.22,38.88-1.09,1.47-2.54.84-3.49-.37-6.57-9.24-14.28-17.68-20.86-26.9-.65-.91-3.17-6.94-4.28-4.23l.29,31.01c-.52,1.46-2.33,1.65-3.53.79Z"/>
  <path d="M307.46,40.92c-.68.68.63,13.67.37,15.61-.44,1.4-4.18,1.59-4.51-.2-.12-.65.69-4.07.73-5.25.38-9.67.26-20.56,0-30.26-.04-1.51-1.45-4.09.82-4.44,6.05.42,17.76-.47,21.46,5.44,2.93,4.67,2.64,12.23-2.29,15.41-1.16.75-4.51,1.12-4.35,2.74.07.77,8.05,11.43,9.08,12.53,1.25,1.33,4.02,2.29,3.23,4.2-.66,1.6-3.5.75-4.56.01l-11.07-15.57c-.88-.63-8.57-.56-8.9-.22ZM308.05,19.79c-2.06.54-.63,3.23-.64,4.63,0,2.96.01,5.93,0,8.89-.01,1.69-1.57,4,1.31,4.44,5.7.87,14.91-.16,15.25-7.58.21-4.5-1.82-9.43-6.71-10.32-1.26-.23-8.12-.34-9.2-.06Z"/>
  <path d="M460.7,16.19c.92-.26,1.92.1,2.17,1.08.92,3.58-.4,11.54-.2,15.54.01,1.1.88,1.57,1.84,1.8l22.17-.36c.51-.31.64-.61.74-1.18.44-2.45.06-8.71,0-11.54-.03-1.33-1.24-4.07.34-4.93,1.74-.95,2.97.6,3.04,2.3.44,11.19-.56,23.2-.27,34.57.05,1.89,1.56,5.02-2.7,3.9-1.99-.52-.68-2.66-.64-3.9.09-3.76.78-11.11.24-14.41-.19-1.14-.58-1.56-1.79-1.57l-22.1.24-.85,1.33.21,17.47c-.26,1.49-2.7,1.45-3.32.31-.34-.62.47-5.48.51-6.73.27-9.18-.02-18.84-.04-28.06,0-1.49-1.39-5.27.69-5.86Z"/>
  <path d="M174.02,57.12c-.94-.94,1.01-2.1,1.43-2.89.76-1.44,1.72-3.71,2.4-5.28,4.59-10.43,8.25-21.35,12.85-31.79.31-.64,1.08-.94,1.74-.69l17.39,40.22c-.77,1.24-2.52,1.07-3.65.54-1.5-.7-2.83-6.6-3.62-8.38-.38-.85-1.84-3.93-2.5-4.21l-15.88-.16c-2.84.52-2.79,3.63-3.55,5.81-.25.7-.81,1.24-1.08,2.04-.42,1.23-.29,3.11-.91,4.13-.71,1.15-3.69,1.6-4.61.67ZM191.17,22.9l-6.85,18.03c.19.56.53.57,1.02.66,3.68.68,9.23-.61,13.16.18,2.3-1.48-.2-2.62-.8-3.89-1.07-2.28-2.7-6.63-3.59-9.13-.5-1.38-.76-6.54-2.94-5.85Z"/>
  <path d="M273.15,57.12c-.79-.97.58-12.57-.17-15.07-.19-.64-1.05-1.09-1.38-1.74-3.36-6.55-7.79-14.48-11.75-20.65-.9-1.4-4.29-3.81.63-3.51,3.18.19,2.41,1.54,3.45,3.52,2.56,4.9,5.52,9.58,8.09,14.47.61,1.16,1.35,4.54,2.87,4.54s1.55-2.79,2.07-3.91c2.36-5.08,5.67-10.64,8.41-15.59.34-.62.3-1.41.67-1.97.8-1.2,4.92-2.16,4.45.35-5.92,7.58-9.17,16.81-14.17,24.96l.27,13.94c-.4,1.22-2.71,1.54-3.44.65Z"/>
  <path d="M415.57,16.43l30.49.12c1.35.95,1,2.92-.6,3.38l-11.7-.46c-.73,0-1.44.23-1.69.97.29,10.6-.37,21.22-.12,31.83.04,1.71,1.47,4.76-.95,5.28-3.79.82-1.99-2.69-1.91-4.09.63-10.67-.4-22.04-.12-32.78-.07-.25-.5-.85-.72-.96-1.16-.63-10.6.39-12.68.21-1.62-.95-1.96-2.78,0-3.5Z"/>
  <path d="M145.58,16.18c3.73-.7,2.01,4.66,1.97,6.55-.16,8.97.27,17.94.26,26.9,0,1.71-1.53,4,1.3,4.43,4.76.72,12.91-.98,17.23.05,1.9.45,1.61,2.36.11,3.13h-21.96c-1.52-.7-.12-2.87-.05-4.25.63-11.66-.29-23.61-.27-35.29-.02-.66.79-1.4,1.4-1.52Z"/>
  <path d="M246.56,75.96l16.12,20.3c1.61.04.75-6.4.79-7.77.06-1.79.49-3.97.51-5.75.02-1.35-1.34-5.91.39-6.32,1.13-.27,1.17.71,1.28,1.51.74,5.61-.23,14.33-.43,20.17-.03.77,1.27,5.15-1.15,3.98-.28-.14-3.73-4.12-4.18-4.7-2.44-3.1-5.14-6.8-7.5-10.02-.77-1.05-1.79-4.14-3.43-4.01-1.92.15-.2,4.65-.12,5.88.16,2.52-.23,5-.24,7.42,0,1.31.8,2.87.48,4.33-.44,1.94-3.26,1.78-3.37-.71-.28-6.11.1-13.93.27-20.17.04-1.36-1-3.25.59-4.12Z"/>
  <path d="M214.21,76.17c.95-.24,3.05,2.69,3.66,3.45,3.02,3.78,6.51,8.35,9.33,12.27.73,1.01,1.78,4.21,3.05,4.15,2.07-.1.57-4.83.57-6.11.02-2.9.53-5.86.51-8.88,0-1.02-.57-2.06-.48-3.08.21-2.22,2.5-2.63,2.64-.02.33,6.18-.38,13.83-.51,20.15-.03,1.26,1.36,6.46-2.02,3.24-2.78-2.65-6.98-8.83-9.43-12.17-.86-1.17-3.67-6.61-4.97-6.55-1.73.08-.34,4.94-.33,6.11.02,3.09-.36,6.24-.27,9.37.02.89.57,1.84.48,2.61-.21,1.86-3.04,2.38-3.13-.22-.24-6.2.31-13.63.52-19.92.03-.92-.92-4.08.39-4.4Z"/>
  <path d="M192.26,90.84c-.99.8-.28,3.05-.28,4.14,0,1.53-1.15,4.52,1.53,4.68,2.36.14,7.55-.91,9.56-.42,1.59.39,1.15,2.74-.91,3.07s-9.27.2-11.52,0c-3.2-.27-1.62-2.92-1.57-4.7.08-3.01.23-6.12.24-9.11,0-1.49-.81-10.78-.49-11.24.48-.7,9.21-.38,10.7-.41,1.33-.02,2.03-1.05,3.47.14,3.7,3.04-8.64,1.85-9.71,2.03-1.01.17-1.5.47-1.57,1.57-.04.66.08,6.43.24,6.73,1.27,2.35,9.12-1.12,9.12,2.14,0,3.6-7.37.23-8.8,1.39Z"/>
  <path d="M297.02,102c-2.89,2.85-4.33-7.09-5.85-7.83-1.04-.5-4.7,0-6.21-.03-2.15-.03-2.95-1.4-4.48,1.76-.84,1.73-1.21,8.64-4.48,5.51l10.11-24.61c1.18-.49,3.4,5.17,3.89,6.31,1.64,3.82,2.77,7.95,4.32,11.76.54,1.33,3.79,6.07,2.7,7.15ZM282.74,91.2c.38.36,5.56.63,6.31.56,2.84-.28.35-2.4-.01-3.38-.43-1.19-1.79-7.15-2.74-7.33-1.63-.32-1.11,3-1.28,3.8-.24,1.14-3.17,5.52-2.29,6.36Z"/>
  <path d="M349.8,57.1c-.8.74-2.3.79-3.04-.04-.92-1.01,0-1.94.01-3.12.15-10.55.19-21.14.25-31.69,0-1.51-1.01-4.47-.03-5.53,1.16-1.26,3.09-.31,3.4,1.21-.14,11.8-.61,23.79-.52,35.52,0,1.25,1.03,2.62-.06,3.64Z"/>
  <path d="M153.97,96.71l6.66-17.22c.35-1.06,2.93-4.9,3.85-2.39.28.76-2.42,4.66-2.89,5.74-2.3,5.34-3.87,11.48-6.31,16.97-1.73,3.89-2.71,2.54-4-.65-1.57-3.89-2.79-8.18-4.32-12-.82-2.05-3.75-7.21-4.1-8.87-.71-3.34,2.72-1.87,3.71.62.44,1.11.29,2.35.62,3.22,1.12,3.03,4.12,8.21,4.81,10.79.33,1.24-.39,4.66,1.97,3.78Z"/>
  <path d="M174.02,102c-.71-.73-.05-2.71-.05-3.65,0-6.4-.69-14.55-.27-20.65.16-2.3,2.09-2.47,2.42-.24v23.54c.03,1.04-1.38,1.76-2.11,1.01Z"/>
  <path d="M56.76,19.55c.39-.03,1.09.41,1.41.66,8.45,10.33,20.53,19.78,28.43,30.37,1.45,1.94,2.06,2.15.86,4.68-1.1,2.32-8.98,9.71-11.28,12-3.25,3.23-17.19,17.2-20.2,18.44-1.9.78-3.38-1.15-4.77-2.36-9.61-8.34-17.96-19.57-27.84-27.84l-.61-1.32L56.76,19.55ZM37.55,66.39c2.4,2.44,14.94,16.29,16.68,16.79.57.17,1.12.24,1.71.11,1.01-.22,8.24-7,9.54-8.23,4.23-3.99,8.9-8.56,12.96-12.72,1.37-1.4,6.63-6.58,7.3-7.82.31-.56.47-.8.33-1.49-3.45-3.61-6.54-7.56-9.92-11.22-5.04-5.47-10.68-11.48-15.96-16.68-.98-.96-2.46-3-3.91-2.71l-30.85,30.85c-.11.36-.08.72,0,1.09.18.84,10.58,10.48,12.1,12.02Z"/>
  <path d="M56.78,34.92c7.69-.98,15.45,11.09,14.71,18.07-.83,7.81-10.17,19.46-18.86,16.93-5.32-1.55-9.6-4.99-13.06-9.26-3.06-3.79-3.6-5.37-1.74-10.12,2.08-5.31,13.23-14.88,18.95-15.61ZM57.02,36.84c-5.12.48-17.51,11.18-17.95,16.38-.63,7.33,11.86,16.95,18.79,14.71,6.03-1.95,11.36-9.94,11.71-16.13.32-5.71-6.14-15.55-12.54-14.95Z"/>
</svg>
